<?xml version="1.0" encoding="utf-8"?>
<!-- Generator: Adobe Illustrator 16.0.0, SVG Export Plug-In . SVG Version: 6.00 Build 0)  -->
<!DOCTYPE svg PUBLIC "-//W3C//DTD SVG 1.1//EN" "http://www.w3.org/Graphics/SVG/1.1/DTD/svg11.dtd">
<svg
            width="24"
            height="24"
            viewBox="0 0 24 24"
            fill="none"
            xmlns="http://www.w3.org/2000/svg"
          >
            <path
              d="M4.92894 4.92888C4.53842 5.3194 4.53842 5.95257 4.92894 6.34309L10.5858 11.9999L4.92894 17.6568C4.53842 18.0473 4.53842 18.6805 4.92894 19.071C5.31946 19.4615 5.95263 19.4615 6.34315 19.071L12 13.4142L17.6569 19.071C18.0474 19.4615 18.6806 19.4615 19.0711 19.071C19.4616 18.6805 19.4616 18.0473 19.0711 17.6568L13.4142 11.9999L19.0711 6.34309C19.4616 5.95257 19.4616 5.3194 19.0711 4.92888C18.6806 4.53836 18.0474 4.53836 17.6569 4.92888L12 10.5857L6.34315 4.92888C5.95263 4.53836 5.31946 4.53836 4.92894 4.92888Z"
              fill="#252526"
  ></path>
</svg>
